Patient4_TMGait_0pt5_02_right_22_EMG.mot
version=1
nRows=39
nColumns=33
inDegrees=no
endheader
time	1LAddLong	2LGlutMax	3LGlutMed	4LIliopsoas	5LSemiMemb	6LBicFemLong	7LRecFem	8LVastMed	9LVastLat	10LGasMed	11LTibAnt	12lTibPost	13LPeroneusLong	14LSol	15LExtDigLong	16LFlexDigLong	17RAddLong	18RGlutMax	19RGlutMed	20RIliopsoas	21RSemiMemb	22RBicFemLong	23RRecFem	24RVastMed	25RVastLat	26RGasMed	27RTibAnt	28RTibPost	29RPeroneusLong	30RSol	31RExtDigLong	32RFlexDigLong
28.66	0.0177	0.1059	-0.055695	0.020294	0.10574	0.053101	0.021515	0.003052	0.009308	-0.056152	-0.021667	-0.28153	-0.17029	-0.09201	0.003967	0.076141	-0.010986	-0.15579	-0.43091	0.029602	0.005341	-0.027008	0.33905	0.1152	0.057678	0.004272	0.69733	-0.005646	-0.060272	0.11566	-0.001526	0.00885
28.661	0.011749	0.091858	-0.14099	0.007935	0.074463	0.025482	0.028839	-0.006866	0.011444	0.34134	-0.002289	0.47241	0.17593	-0.05127	0.050049	0.13733	0.023193	-0.11505	-0.41977	0.015869	0.001221	-0.03006	0.37018	0.13138	0.06546	0.002747	0.2652	-0.007172	-0.002899	0.16571	-0.002136	0.000153
28.662	0.019073	0.10346	-0.07843	-0.001831	0.072021	0.001526	0.006714	0.002289	0.017242	0.49728	-0.006104	-0.088654	0.35919	0.27893	0.010223	0.078888	0.10254	-0.11551	-0.43472	0.049591	-0.025787	-0.038605	0.38116	0.1474	0.049591	0.00946	-0.35111	-0.002899	0.034485	0.14328	0.00061	0.014801
28.663	0.017548	0.035858	-0.058136	0.014343	0.031433	0.069275	0.019684	-0.004272	0.015869	0.78735	-0.016479	-0.085297	-0.31403	0.50888	-0.005951	-0.038605	0.14847	-0.13748	-0.38879	0.029602	-0.024567	-0.03418	0.40344	0.06897	0.048676	-0.003967	-0.12192	-0.004425	-0.032501	0.17273	-0.001526	0.010071
28.664	0.017853	0.017395	0.040436	0.003204	0.002594	0.13657	0.014343	-0.002747	0.013428	0.95001	-0.017548	-0.14954	-0.112	0.70419	0.005493	-0.026398	0.14801	-0.1297	-0.3331	-0.013885	-0.02243	-0.03006	0.38925	0.009918	0.040894	-0.00824	0.11902	-0.005035	-0.095215	0.25696	-0.000305	0.002136
28.665	0.012665	-0.028992	0.056	-0.003357	0.028687	0.11704	0.005951	0.003052	0.007935	0.38116	-0.005951	-0.082397	0.2594	0.66513	0.053711	-0.022583	0.095215	-0.1828	-0.4567	-0.001221	-0.034332	-0.041351	0.40298	0.014648	0.035706	0.000153	0.41306	-0.005951	-0.021362	0.12222	-0.002441	0.001831
28.666	0.00473	-0.023499	0.090027	-0.004883	0.018005	0.039825	0.024109	0.006866	-0.022583	-0.28961	0.02121	0.098724	-0.093079	0.10193	0.05127	0.068512	0.066376	-0.18204	-0.41992	-0.026703	-0.031738	-0.031738	0.37628	0.031738	0.02182	0.002441	0.61905	-0.002899	-0.038757	0.004578	-0.003052	0.00351
28.667	0.003815	-0.00824	-0.022125	-0.013885	0.012054	-0.14069	-0.005035	0.003052	-0.027924	-0.4837	0.016937	-0.19272	0.60684	-0.097198	0.006409	0.12314	0.061798	-0.20432	-0.079041	0.023041	-0.033112	-0.048065	0.38727	0.051727	0.021973	-0.008545	0.27634	-0.005798	-0.12405	0.007324	-0.00351	0.002899
28.668	-0.010071	0.004425	-0.062714	0.016632	0.016174	0.043182	-0.018311	0.011139	-0.054474	-0.4277	0.005341	-0.13214	0.15884	-0.40146	-0.026398	-0.004272	0.14252	-0.12314	-0.083618	0.089111	-0.0354	-0.039978	0.36072	0.007324	0.033417	-0.002289	-0.20783	-0.003815	-0.092773	-0.032349	-0.001678	-0.003662
28.669	-0.001068	-0.038452	-0.056458	-0.005493	0.007019	0.019684	-0.015411	0.016632	-0.019684	0.054932	-0.006409	-0.019531	-0.23422	-0.080109	-0.095062	-0.07019	0.06424	-0.090942	-0.17303	0.13687	-0.027771	-0.012512	0.30197	-0.072632	0.017395	-0.002747	-0.14725	-0.007172	-0.086975	-0.05127	-0.002747	-0.002136
28.67	-0.002136	-0.019379	-0.036621	-0.000153	-0.002747	0.076599	0.003662	0.009155	0.030823	0.13443	-0.013428	0.054321	-0.3154	0.46555	-0.10788	-0.072632	-0.014496	-0.13458	-0.32928	0.058899	-0.030518	-0.012207	0.26581	-0.044708	0.036469	0.004425	-0.39337	-0.000305	-0.015259	-0.13382	-0.001831	-0.003052
28.671	-0.010986	-0.058746	-0.057678	0.00885	-0.018158	0.10834	0.054169	0.018005	-0.016479	0.12314	-0.018768	0.037842	0.2948	0.083923	-0.10025	-0.002594	-0.10681	-0.12482	-0.55206	0.026398	-0.024261	-0.020447	0.20538	-0.082855	0.021057	0.010986	-0.68298	0.000763	0.004425	-0.16953	-0.001068	0.003967
28.672	0.001373	-0.020142	-0.063934	0.004425	-0.022125	0.11841	0.045166	0.011749	-0.005646	-0.22003	-0.009918	-0.006866	0.45853	-0.51254	-0.04364	-0.030365	-0.19073	-0.13092	-0.66849	0.032959	-0.037079	-0.022888	0.19867	-0.053101	0.007782	0.007477	-0.16617	-0.008087	-0.068665	-0.15121	0.001221	-0.000458
28.673	0.001678	-0.014191	-0.013885	0.01709	-0.065765	0.089722	0.043335	0.020752	-0.014343	-0.51971	0.02655	0.034027	-0.11536	-0.59784	-0.016937	-0.032196	-0.24826	-0.11215	-0.64667	0.004425	-0.028229	0.015259	0.17029	-0.018616	0.010986	0.00061	0.45883	-0.004272	-0.11826	-0.096283	0.003357	-0.007935
28.674	0.004578	0.010071	0.011749	0.009308	-0.060425	0.028381	0.014496	0.010071	-0.00885	-0.30029	0.03067	0.002747	-0.34759	-0.54016	0.040283	-0.016937	-0.22675	-0.097809	-0.65857	-0.013275	0.000153	0.012665	0.18356	0.002899	0.002747	-0.003662	0.53665	-0.009613	-0.090027	-0.068054	-0.002289	0.000916
28.675	-0.009155	0.003967	0.000763	0.003967	-0.047455	-0.076447	0.034943	0.011597	-0.013428	-0.14099	0.031433	0.008087	-0.43762	-0.21591	0.096283	0.02243	-0.18646	-0.029755	-0.54016	-0.0737	-0.000305	0.039825	0.088806	-0.041046	0.022278	0.008698	-0.33341	-0.001984	0.1741	-0.16251	-0.001831	0.002136
28.676	-0.013275	0.007172	-0.00473	-0.000458	0.010834	0.054779	0.043335	0.013885	-0.027466	-0.18646	-0.00885	0.028534	-0.47577	-0.33676	0.069122	0.033875	-0.12894	-0.025482	-0.33417	-0.068207	0.011444	0.036774	0.10162	-0.017548	0.016174	0.007629	-0.9613	-0.00351	0.26459	-0.17593	0.000916	0.002289
28.677	-0.004578	0.00473	-0.010681	0.012512	0.028229	0.14557	0.033112	0.016022	-0.022125	-0.25955	-0.018616	-0.032806	-0.002289	-0.6604	-0.033112	0.010223	-0.085144	-0.087433	-0.42801	-0.089569	0.024719	0.027618	0.095673	0.00885	0.02243	0.008698	-0.63477	-0.002899	0.14954	-0.14282	-0.001678	0.000763
28.678	-0.01297	-0.08194	-0.014038	0.003052	0.028229	-0.11063	0.014191	0.009155	-0.005188	-0.336	-0.029602	0.076141	0.06958	-0.59692	-0.1268	-0.016479	-0.059509	-0.19211	-0.6572	-0.16556	0.035095	0.024261	0.10101	-0.026398	0.019531	0.000763	-0.36041	-0.011597	0.20203	0.031128	-0.002747	-0.007019
28.679	-0.005646	-0.01358	0.029602	0.015411	0.066376	-0.15579	-0.002289	0.012054	0.007324	-0.47989	-0.00412	-0.1004	0.17273	-0.16769	-0.019836	-0.00946	-0.042114	-0.1181	-0.49744	-0.22736	0.032196	0.028839	0.2005	0.000763	0.00885	-0.005951	-0.17303	-0.005798	0.23697	0.15289	-0.007782	-0.005493
28.68	-0.006714	0.020142	0.009613	0.013275	0.083618	-0.030975	-0.023041	0.007477	0.016327	-0.17975	0.006409	-0.046539	0.071869	0.38391	0.047913	0.006866	-0.033569	-0.11826	-0.35202	-0.15106	0.028229	0.020599	0.14313	-0.014648	0.009155	-0.001831	-0.13626	-0.005798	0.15656	0.13672	-0.004272	-0.00412
28.681	-0.006714	0.027466	-0.027771	0.017395	-0.014191	0.11551	-0.034637	0.005341	0.021515	0.078583	-0.006714	-0.038147	0.007629	0.4808	0.053406	0.04715	-0.01709	-0.084534	-0.52689	-0.035095	0.008545	0.003662	0.10651	-0.042419	0.025024	-0.002441	-0.12344	-0.007782	-0.36118	0.13168	-0.004272	-0.00885
28.682	0.006714	0.054932	0.045319	0.041809	-0.080414	-0.00946	-0.016632	0.00061	0.026245	-0.24109	-0.003204	-0.052338	-0.024109	0.23682	0.073547	-0.2301	-0.021362	-0.016479	-0.63446	0.000763	0.002289	0.00061	0.071869	-0.087433	0.015106	0.001984	-0.008698	-0.007935	-0.32791	0.091858	-0.001831	-0.000916
28.683	0.009308	0.094452	0.11734	0.035553	-0.11337	-0.12955	-0.002441	0.003967	0.019989	-0.26398	-0.001984	0.058289	-0.16174	-0.045166	0.064697	0.011902	-0.019836	-0.055237	-0.49149	-0.028687	-0.005798	0.010681	-0.011444	-0.067902	0.003204	0.005188	0.19272	-0.001984	0.022278	0.14114	0.007782	-0.000305
28.684	0.013733	0.11185	0.084686	0.001373	-0.067139	-0.16403	0.003052	-0.017853	0.01297	0.070496	-0.017242	0.062408	-0.055542	-0.089722	0.046844	0.11673	-0.011749	-0.02243	0.26077	-0.098419	0.000153	0.004883	0.017548	-0.041351	0.014801	0.006256	0.62073	0.001068	-0.071564	0.14038	-0.002441	-0.012207
28.685	0.023193	0.072937	-0.032806	-0.007477	0.07431	-0.16022	0.021973	-0.014343	0.014954	0.53238	-0.018768	-0.028992	0.009918	0.028687	0.033112	-0.57571	-0.007324	-0.09079	-0.16525	-0.052948	-0.010223	-0.006256	0.084381	-0.001373	0.0177	0.007324	0.50247	-0.001526	-0.24506	0.021515	-0.000153	-0.013428
28.686	0.00946	0.074921	0.032196	0.007782	0.1329	-0.16037	0.050812	0.008087	0.012512	0.59662	-0.009308	-0.033417	-0.028534	0.19165	0.010986	0.42908	-0.019226	-0.096436	-0.43228	0.007782	-0.018158	0.001678	-0.024872	-0.036621	0.029297	0.004883	0.22598	0.002899	-0.24185	0.010986	-0.001221	-0.010681
28.687	0.01358	0.076447	0.023041	-0.001984	0.15686	-0.10864	0.069733	0.01236	-0.00473	0.062103	0.003204	-0.044403	-0.041046	0.36026	-0.002441	-0.18402	-0.018463	-0.00824	-0.25406	0.047607	-0.011597	-0.00824	-0.046539	-0.05722	0.027313	-0.006409	0.40497	-0.000763	-0.11566	0.069122	0.009308	-0.006714
28.688	-0.001678	0.071106	-0.031128	-0.013123	0.09079	-0.02243	0.053711	0.010529	-0.028229	-0.023041	-0.002594	-0.02655	-0.053711	0.024261	-0.024567	0.040436	-0.002747	-0.06485	-0.41382	0.1799	-0.014038	0.005646	-0.03891	-0.039825	0.019226	-0.014191	0.39139	0.000916	0.022125	0.12421	-0.000916	-0.012512
28.689	-0.001984	0.069122	-0.031891	-0.005188	0.049133	-0.000153	0.013275	0.013123	-0.027008	0.14771	-0.001831	-0.000305	-0.02655	-0.28229	-0.007935	0.35873	0.002747	-0.049896	-0.28122	0.15381	-0.010834	0.001373	-0.031128	-0.079193	0.011444	-0.014801	0.032043	0.003967	0.09903	0.043182	-0.000458	-0.01297
28.69	-0.002136	0.028229	-0.048523	0.009003	0.016327	-0.12131	-0.039673	0.005188	-0.009918	-0.015717	0.003662	-0.017395	-0.008545	-0.70053	-0.009766	0.06546	-0.009003	-0.032654	-0.32745	0.10239	-0.021362	0.001373	0.039978	-0.047455	0.011902	-0.014496	-0.20462	-0.000458	0.13947	-0.030975	0.001984	-0.010071
28.691	0.005646	-0.011597	-0.062256	-0.0177	0.024261	-0.10437	-0.009613	0.013123	-0.000763	-0.10651	0.00412	-0.001984	0.032959	-0.34363	0.001221	0.027618	-0.011444	-0.02594	-0.40512	0.072021	-0.01709	-0.004578	-0.010223	-0.035858	0.010986	-0.008392	-0.059357	0.005646	0.092468	-0.029449	0.004272	-0.003357
28.692	0.000458	0.002136	-0.076447	0.005341	0.016022	-0.004425	-0.007629	0.008087	0.015564	-0.068359	-0.00351	-0.015717	0.046082	0.1358	0.001068	0.018921	-0.001068	-0.032501	-0.51315	-0.000763	-0.017853	-0.018463	-0.000763	-0.057678	0.005035	0	-0.28198	0.00412	0.11017	0.003052	-0.001831	-0.010071
28.693	0.00061	0.033417	0.040741	-0.016174	0.013428	0.017395	0.055389	0.007782	-0.02121	0.079346	0.005646	-0.010223	0.002136	0.28107	-0.005646	-0.013275	0.018463	-0.012054	-0.36057	-0.060577	-0.016632	-0.024414	0.001831	-0.05127	0.001221	0.002747	-0.42877	0.005951	0.11551	0.072174	-0.002136	-0.007324
28.694	0.004578	0.059357	0.022736	-0.001984	0.001526	0.009918	0.12222	0.016022	-0.059509	0.096893	0.011139	-0.009308	0.000305	0.15442	-0.016022	-0.040588	-0.003967	-0.012665	-0.17899	-0.023956	0.00061	-0.013123	-0.012665	-0.068817	-0.004272	0.002136	-0.36743	0.004883	-0.12924	0.08606	-0.002441	0.001373
28.695	0.002136	0.060577	-0.026093	-0.000458	-0.010986	-0.009308	0.12161	0.01236	-0.027771	-0.13245	0.008087	-0.016022	-0.008392	0.29282	-0.018158	-0.026703	0.00412	-0.050964	-0.18234	0.062256	0.015106	-0.02121	-0.068207	-0.060577	0.002747	0.001373	-0.19073	0.006104	0.22919	0.074005	-0.00473	0.006561
28.696	0.007324	0.088043	-0.03891	0.018005	-0.019836	-0.054474	0.07309	0.010071	-0.045319	-0.21957	0.010681	-0.002594	-0.030975	0.20248	-0.015259	0.001068	-0.004272	0.031281	-0.24078	0.10544	-0.038147	0.006104	-0.036163	-0.090942	0.036163	-0.006104	-0.052948	0.004578	-0.08316	0.14145	0	0.004578
28.697	0.006561	0.090485	0.12466	0.012512	-0.007324	-0.063934	0.080566	0.02182	-0.13504	-0.14954	0.005035	-0.003967	-0.03891	-0.048676	-0.001373	-0.00473	0.000458	0.014648	-0.38254	0.090485	-0.060272	-0.004425	0.008087	-0.08728	0.019684	0.000458	-0.29144	0.003815	-0.088654	0.073853	-0.002136	-0.001068
28.698	0.013733	0.10544	0.14496	0.001984	0.002289	-0.1442	0.035706	0.005188	-0.15106	0.022583	0.014954	-0.011902	-0.03952	-0.32883	0.018158	-0.011902	0.001373	-0.005035	-0.51727	0.072021	-0.045471	-0.003052	-0.020752	-0.085297	0.011902	0.00061	-0.11124	0.005188	-0.16007	-0.027924	-0.004425	0.001831
